# xmcd
#
# Track frame offsets: 
#        150
#        22065
#        38370
#        55985
#        70251
#        89628
#        105599
#        118314
#        137257
#        151161
#        171442
#        183883
#
# Disc length: 2716 seconds
#
# Revision: 0
# Processed by: cddbd v1.5.2PL0 Copyright (c) Steve Scherf et al.
# Submitted via: ExactAudioCopy v0.99pb3
#
DISCID=9c0a9a0c
DTITLE=Shearwater - Shearwater
DYEAR=2008
DGENRE=Bluegrass
TTITLE0=Broken Ground
TTITLE1=Argyle Street
TTITLE2=Green-Eyed Lover
TTITLE3=Nightingale
TTITLE4=Sorrento
TTITLE5=The Letter
TTITLE6=When The Moon Comes Out Tonight
TTITLE7=Trouter
TTITLE8=Big Sky Blues
TTITLE9=Rhythm Of A Lonely Heart
TTITLE10=Snows Of December
TTITLE11=Shearwater
EXTD=
EXTT0=
EXTT1=
EXTT2=
EXTT3=
EXTT4=
EXTT5=
EXTT6=
EXTT7=
EXTT8=
EXTT9=
EXTT10=
EXTT11=
PLAYORDER=
